# xmcd
#
# Track frame offsets: 
#        150
#        16492
#        39560
#        62512
#        97047
#        130042
#        150842
#        171820
#        196362
#        222947
#        244125
#        279842
#        292472
#        310805
#        333187
#
# Disc length: 4654 seconds
#
# Revision: 14
# Processed by: cddbd v1.5.2PL0 Copyright (c) Steve Scherf et al.
# Submitted via: ExactAudioCopyFreeDBPlugin 1.0
#
DISCID=d2122c0f
DTITLE=Various Artist - The Funk Box [box set]
DYEAR=2000
DGENRE=Funk
TTITLE0=Curtis Mayfield - Future Shock
TTITLE1=Gil Scott-Heron and Brian Jackson - The Bottle
TTITLE2=Tower of Power - What is Hip?
TTITLE3=James Brown - The Payback
TTITLE4=The O'Jays - For the Love of Money
TTITLE5=Kool and The Gang - Hollywood Swinging
TTITLE6=Rufus featuring Chaka Khan - Tell Me Something Good
TTITLE7=The Blackbyrds - Do It, Fluid
TTITLE8=B.T. Express - Do It (Till Your Satisfied)
TTITLE9=The Meters - Just Kissed My Baby
TTITLE10=Ohio Players - Skin Tight
TTITLE11=George McCrae - I Get Lifted
TTITLE12=The Temptations - Shakey Ground
TTITLE13=The Average White Band - School Boy Crush
TTITLE14=Jermaine Jackson - Erucu
EXTD=YEAR: 2000
EXTT0=
EXTT1=
EXTT2=
EXTT3=
EXTT4=
EXTT5=
EXTT6=
EXTT7=
EXTT8=
EXTT9=
EXTT10=
EXTT11=
EXTT12=
EXTT13=
EXTT14=
PLAYORDER=
